<svg xmlns="http://www.w3.org/2000/svg" viewBox="0 0 1069.49 1000.8"><defs><style>.cls-1{fill:none;stroke:#fff;stroke-miterlimit:10;stroke-width:1.42px;}</style></defs><title>moonlanding-sunburst</title><g id="Layer_2" data-name="Layer 2"><path class="cls-1" d="M564.2,20.72c-.53-4.61,1.77-8.43,1.15-13.16" transform="translate(0.46 0.18)"/><path class="cls-1" d="M557.08,101.6q2.73-30.88,5.45-61.76" transform="translate(0.46 0.18)"/><path class="cls-1" d="M552.9,149.77q1.13-13.17,2.26-26.34" transform="translate(0.46 0.18)"/><path class="cls-1" d="M490.48,862.19c1.93-17.42,3.27-34.9,4.56-52.38" transform="translate(0.46 0.18)"/><path class="cls-1" d="M486.73,905.34q1.2-13.86,2.41-27.71" transform="translate(0.46 0.18)"/><path class="cls-1" d="M484.06,936.76q.74-8.79,1.49-17.58" transform="translate(0.46 0.18)"/><path class="cls-1" d="M591.3,97.11c.66-6.08,3-12.2,3.31-18.77" transform="translate(0.46 0.18)"/><path class="cls-1" d="M581.5,153.33q3-17.36,6-34.72" transform="translate(0.46 0.18)"/><path class="cls-1" d="M463.29,823.5l3-16.85" transform="translate(0.46 0.18)"/><path class="cls-1" d="M450.51,895.56l10.08-56.8" transform="translate(0.46 0.18)"/><path class="cls-1" d="M609.18,160.42c1.12-3.66,1.12-7.48,2.65-11.3,2.29-4.59,2.29-9.94,4.59-14.52,1.52-4.59,1.52-9.18,3.05-13.76,3.06-8.41,4.59-16.82,7.65-26,3.82-14.53,7.64-29,11.41-44" transform="translate(0.46 0.18)"/><path class="cls-1" d="M419.37,868.81c5.94-22.55,12.06-44.72,18.19-67.89" transform="translate(0.46 0.18)"/><path class="cls-1" d="M659.19,106.66a39.84,39.84,0,0,1,3.65-10" transform="translate(0.46 0.18)"/><path class="cls-1" d="M637.19,167.6q7.39-20.53,14.77-41.08" transform="translate(0.46 0.18)"/><path class="cls-1" d="M378.77,876.82c9.85-28.27,21.32-56.55,30.79-84.74" transform="translate(0.46 0.18)"/><path class="cls-1" d="M356.71,937.55q7.65-21.07,15.31-42.16" transform="translate(0.46 0.18)"/><path class="cls-1" d="M342.14,977.74l8-22.11" transform="translate(0.46 0.18)"/><path class="cls-1" d="M663.26,178.6c15.07-33.3,31.13-65.41,46.53-99.11" transform="translate(0.46 0.18)"/><path class="cls-1" d="M366.74,815.16q7.92-17,15.82-34" transform="translate(0.46 0.18)"/><path class="cls-1" d="M353,844.65c1.24-2.21,5.82-12.15,6.27-13.43" transform="translate(0.46 0.18)"/><path class="cls-1" d="M720.36,137.71c3.21-3.25,4-8.1,6.5-11.24" transform="translate(0.46 0.18)"/><path class="cls-1" d="M688.43,192.66c6.72-12.2,13.6-23.66,20.38-34.93" transform="translate(0.46 0.18)"/><path class="cls-1" d="M352.82,774.13q1.69-2.82,3.38-5.65" transform="translate(0.46 0.18)"/><path class="cls-1" d="M298.27,868.81c11.75-20.2,23.83-40.22,35.1-60.7,3.23-5.85,6.33-11.77,9.66-17.57" transform="translate(0.46 0.18)"/><path class="cls-1" d="M732.81,179.53c8-11.55,16.31-22.38,23.86-34.06" transform="translate(0.46 0.18)"/><path class="cls-1" d="M712.72,208.83c2.24-3.21,4.45-6.46,6.46-9.83" transform="translate(0.46 0.18)"/><path class="cls-1" d="M272,838.08c8.41-11.17,16.33-22.69,24.22-34.23s33-46.75,37.44-52.93" transform="translate(0.46 0.18)"/><path class="cls-1" d="M250.18,868.81Q255.12,862,260,855.1" transform="translate(0.46 0.18)"/><path class="cls-1" d="M734.39,227c2-2.93,71.6-87,100.27-119.5" transform="translate(0.46 0.18)"/><path class="cls-1" d="M263.78,787.81c15.53-18.76,31.59-36.34,46.28-55.15" transform="translate(0.46 0.18)"/><path class="cls-1" d="M810.41,191.23c4.75-4.65,9.34-9.24,13.92-13.92" transform="translate(0.46 0.18)"/><path class="cls-1" d="M757.39,244.93c13.17-13.05,26.39-26.06,39-39.67" transform="translate(0.46 0.18)"/><path class="cls-1" d="M278.05,722.84l9.62-9.61" transform="translate(0.46 0.18)"/><path class="cls-1" d="M242.43,758.87q10.63-10.8,21.3-21.58" transform="translate(0.46 0.18)"/><path class="cls-1" d="M173.32,828.33c17.32-18,35.67-35.58,53.32-53.62" transform="translate(0.46 0.18)"/><path class="cls-1" d="M775.94,266.18c19.35-16.92,39.22-33,58.72-49.25" transform="translate(0.46 0.18)"/><path class="cls-1" d="M228.15,725.86c13.6-11.09,27-22.43,40.4-33.75" transform="translate(0.46 0.18)"/><path class="cls-1" d="M166.83,777.31c3.17-2.91,7-5.2,10-8.26,12.23-10.7,23.7-19.87,35.21-29.72" transform="translate(0.46 0.18)"/><path class="cls-1" d="M819.07,271c11.38-6.41,51.13-36.23,58.77-40.81,9.18-6.88,17.58-13.76,27.19-19.37" transform="translate(0.46 0.18)"/><path class="cls-1" d="M794,288.54q5.26-3.75,10.57-7.43" transform="translate(0.46 0.18)"/><path class="cls-1" d="M244.15,673.7a35.64,35.64,0,0,0,6.15-3.81" transform="translate(0.46 0.18)"/><path class="cls-1" d="M161.76,731.22c22-15.67,44.93-30.2,66-46" transform="translate(0.46 0.18)"/><path class="cls-1" d="M810.09,312.37c8.13-5,16.54-9.6,24.95-14.19,17.58-10.7,34.39-20.64,52-30.58,6.11-3.05,12.23-6.88,18-10" transform="translate(0.46 0.18)"/><path class="cls-1" d="M173.32,680c12.74-6.51,54-30.2,61.11-35.28" transform="translate(0.46 0.18)"/><path class="cls-1" d="M915.39,295q29.67-13.59,59.53-27.41c6.88-3.82,14.53-6.88,21.41-10.33" transform="translate(0.46 0.18)"/><path class="cls-1" d="M878.92,312.13q10.51-5,21-9.92" transform="translate(0.46 0.18)"/><path class="cls-1" d="M822.76,337.9c13.37-6.31,26.8-12.5,40.38-18.36" transform="translate(0.46 0.18)"/><path class="cls-1" d="M186,635.55c6.09-2.62,29.85-13.77,35.7-17.11" transform="translate(0.46 0.18)"/><path class="cls-1" d="M157,648.65l10.35-4.78" transform="translate(0.46 0.18)"/><path class="cls-1" d="M833.33,364.74c23.87-8.47,48.33-16.87,71.7-25.93" transform="translate(0.46 0.18)"/><path class="cls-1" d="M125.23,622.63c28.72-8.75,57-21,85.73-30.93" transform="translate(0.46 0.18)"/><path class="cls-1" d="M90.51,635.27c6.11-.75,10.7-4.57,17-6.17" transform="translate(0.46 0.18)"/><path class="cls-1" d="M942.88,365.23c7.58-2.84,16-3.6,23.63-6.34" transform="translate(0.46 0.18)"/><path class="cls-1" d="M842.59,392.33q33.24-9,66.32-18.49c5.63-1.64,11.28-2.77,17-4.06" transform="translate(0.46 0.18)"/><path class="cls-1" d="M164.73,574q19.52-5.22,39.05-10.4" transform="translate(0.46 0.18)"/><path class="cls-1" d="M132.84,582.28l15-3.88" transform="translate(0.46 0.18)"/><path class="cls-1" d="M845.93,420.8l60.27-10.72L923.31,407" transform="translate(0.46 0.18)"/><path class="cls-1" d="M182.06,537.74,200,534.61" transform="translate(0.46 0.18)"/><path class="cls-1" d="M100.78,551.86c21.11-3.85,42.2-7.87,63.44-11" transform="translate(0.46 0.18)"/><path class="cls-1" d="M16,567c22.55-5.12,45.48-8.94,68.14-12.18" transform="translate(0.46 0.18)"/><path class="cls-1" d="M1052.94,431.15c5.3-.73,10.65-.73,16-1.4" transform="translate(0.46 0.18)"/><path class="cls-1" d="M917.32,443c39.26-2.63,78.24-7.22,117.2-10.23" transform="translate(0.46 0.18)"/><path class="cls-1" d="M851.44,448.84q25-2.2,49.91-4.46" transform="translate(0.46 0.18)"/><path class="cls-1" d="M141.6,510.73q26.58-2.42,53.15-4.79" transform="translate(0.46 0.18)"/><path class="cls-1" d="M67.57,517.35l57.52-5.15" transform="translate(0.46 0.18)"/><path class="cls-1" d="M984.17,478.88c7.57-.3,16-.3,23.62,0" transform="translate(0.46 0.18)"/><path class="cls-1" d="M854.89,478.77q56.22-.28,112.32.11" transform="translate(0.46 0.18)"/><path class="cls-1" d="M119,478.88c24.22-.3,47.92-.3,72.17-.07" transform="translate(0.46 0.18)"/><path class="cls-1" d="M874.11,508c18.26,1.91,35.84,2.67,53.81,4.71" transform="translate(0.46 0.18)"/><path class="cls-1" d="M853.32,506.18l3.73.34" transform="translate(0.46 0.18)"/><path class="cls-1" d="M106,440.88c28.88,1.77,57.93,5.59,86.81,7.5" transform="translate(0.46 0.18)"/><path class="cls-1" d="M76.75,438.25l11.15,1" transform="translate(0.46 0.18)"/><path class="cls-1" d="M942.86,551.21c24.42,4.57,49.64,8.4,74.1,13.07" transform="translate(0.46 0.18)"/><path class="cls-1" d="M903.2,544.2l22.09,3.92" transform="translate(0.46 0.18)"/><path class="cls-1" d="M851.35,534.86q17.25,3.09,34.49,6.26" transform="translate(0.46 0.18)"/><path class="cls-1" d="M93.3,402.36C128,409,162.36,413.61,196.62,419.6" transform="translate(0.46 0.18)"/><path class="cls-1" d="M56.28,395.44q8.63,1.71,17.26,3.32" transform="translate(0.46 0.18)"/><path class="cls-1" d="M8.33,386.43q13.89,2.7,27.8,5.29" transform="translate(0.46 0.18)"/><path class="cls-1" d="M844,563.07l84.6,22.68,23.73,6.37" transform="translate(0.46 0.18)"/><path class="cls-1" d="M178.54,384.77l25.31,6.79" transform="translate(0.46 0.18)"/><path class="cls-1" d="M132.84,372.52c9.64,2.86,19.58,4.39,29.59,7.93" transform="translate(0.46 0.18)"/><path class="cls-1" d="M893.92,612c3.8,1.17,7.62,2.69,11.11,4" transform="translate(0.46 0.18)"/><path class="cls-1" d="M835.12,590.15c7.19,2.53,14.48,4.89,21.57,7.7,6.76,2.68,13.38,5.76,20.33,7.95" transform="translate(0.46 0.18)"/><path class="cls-1" d="M134.38,335.6c20.86,7.08,42,13.5,62.29,22.12,5.88,2.5,11.8,4.73,17.83,6.82" transform="translate(0.46 0.18)"/><path class="cls-1" d="M67.57,311.18c16.05,6.15,32.19,12.05,48.36,17.85" transform="translate(0.46 0.18)"/><path class="cls-1" d="M955.4,678.89c7.94,3.47,15.51,7.8,23.73,10.62" transform="translate(0.46 0.18)"/><path class="cls-1" d="M861.14,634.5c26.64,12.25,53.39,25.24,80,37.58" transform="translate(0.46 0.18)"/><path class="cls-1" d="M824.29,618q11.33,5.16,22.81,10" transform="translate(0.46 0.18)"/><path class="cls-1" d="M191,322.32q17.16,7.95,34.36,15.78" transform="translate(0.46 0.18)"/><path class="cls-1" d="M157,306.15q7.89,3.83,15.82,7.6" transform="translate(0.46 0.18)"/><path class="cls-1" d="M877.72,681.48c12.35,8.08,25.35,14.19,37.94,21.9" transform="translate(0.46 0.18)"/><path class="cls-1" d="M811.94,643.38q25.89,15,51.79,30" transform="translate(0.46 0.18)"/><path class="cls-1" d="M169.78,272.18a13,13,0,0,1,5.57,3.83c13,7.65,54.28,31.34,61.5,35.16" transform="translate(0.46 0.18)"/><path class="cls-1" d="M142.1,256.77a18.44,18.44,0,0,0,6.5,3.19" transform="translate(0.46 0.18)"/><path class="cls-1" d="M849,704.82c2.06,1.55,5.12,3.08,7.15,5" transform="translate(0.46 0.18)"/><path class="cls-1" d="M797.51,669.19c6.38,5.18,33.77,23.18,40.35,27.8" transform="translate(0.46 0.18)"/><path class="cls-1" d="M192.31,245c14.88,11.5,31,21.15,46.34,31.92l13.41,9.39" transform="translate(0.46 0.18)"/><path class="cls-1" d="M864.05,762.35q8.9,7.36,17.61,15" transform="translate(0.46 0.18)"/><path class="cls-1" d="M839.41,741.86c1.74,2.73,5.56,5,7.86,7.32,1.53,1.53,3.82,2.29,5.24,3.77" transform="translate(0.46 0.18)"/><path class="cls-1" d="M780.63,693.25c7.78,7,39.12,32.23,47,38.73" transform="translate(0.46 0.18)"/><path class="cls-1" d="M263.49,258.4q3.42,2.69,6.81,5.41" transform="translate(0.46 0.18)"/><path class="cls-1" d="M226.63,227.56c6.47,5,12.91,10.13,19.05,15.58" transform="translate(0.46 0.18)"/><path class="cls-1" d="M165.92,176.73c2.55,2.2,4.85,4.5,7.14,6.79,9.17,6.88,34.4,26.75,38.23,30.1" transform="translate(0.46 0.18)"/><path class="cls-1" d="M775.05,728.21c11.83,11.8,24.06,24,35.73,35.72" transform="translate(0.46 0.18)"/><path class="cls-1" d="M759.87,713.05l6.8,6.77" transform="translate(0.46 0.18)"/><path class="cls-1" d="M270.89,224.16,289.74,243" transform="translate(0.46 0.18)"/><path class="cls-1" d="M237.71,190.87l17.34,17.4" transform="translate(0.46 0.18)"/><path class="cls-1" d="M788.09,791.84c3.38,4,6.43,7.79,9.15,10.9" transform="translate(0.46 0.18)"/><path class="cls-1" d="M740.13,734.45c13.39,15,25.67,30.84,38.58,46.2" transform="translate(0.46 0.18)"/><path class="cls-1" d="M272.68,177c12.93,15.12,24.94,31,37.54,46.38" transform="translate(0.46 0.18)"/><path class="cls-1" d="M223,118.19q18,21.21,35.92,42.41" transform="translate(0.46 0.18)"/><path class="cls-1" d="M198.9,89.67q4.78,5.61,9.53,11.24" transform="translate(0.46 0.18)"/><path class="cls-1" d="M715.68,750.89c9.28,14.34,36,50.27,39.86,55.62.76.76.76,2.29,1.13,2.82" transform="translate(0.46 0.18)"/><path class="cls-1" d="M312.41,174.86q10.9,15.16,21.74,30.41" transform="translate(0.46 0.18)"/><path class="cls-1" d="M291.82,145.47c2,3.65,5.07,7.47,8.12,11.58" transform="translate(0.46 0.18)"/><path class="cls-1" d="M729.75,833.35a273.14,273.14,0,0,0,17.38,29.73,107.57,107.57,0,0,0,7.51,13.38" transform="translate(0.46 0.18)"/><path class="cls-1" d="M705.45,791q8.43,14.64,16.8,29.31" transform="translate(0.46 0.18)"/><path class="cls-1" d="M691.57,767l6.64,11.5" transform="translate(0.46 0.18)"/><path class="cls-1" d="M351.63,178.49l7.22,12.43" transform="translate(0.46 0.18)"/><path class="cls-1" d="M309.86,106.21q15.64,27.2,31.37,54.33" transform="translate(0.46 0.18)"/><path class="cls-1" d="M294.52,79.49l4.75,8.3" transform="translate(0.46 0.18)"/><path class="cls-1" d="M689.79,832.41c.77,4.68,4.6,7.73,5.71,12.24" transform="translate(0.46 0.18)"/><path class="cls-1" d="M665,778.23q7.44,16.26,14.77,32.58" transform="translate(0.46 0.18)"/><path class="cls-1" d="M359.22,123.38q13,28.38,26.29,56.67" transform="translate(0.46 0.18)"/><path class="cls-1" d="M342.14,86.87q4.73,10.09,9.44,20.19" transform="translate(0.46 0.18)"/><path class="cls-1" d="M647.41,815.78c2.64,10.6,7.23,20.54,11.81,31.24,3.82,9.94,6.12,20.64,10.7,30.63" transform="translate(0.46 0.18)"/><path class="cls-1" d="M637.93,789.23c.55,1.64,1.08,3.28,1.61,4.93" transform="translate(0.46 0.18)"/><path class="cls-1" d="M400.64,137.68q5.64,15.38,11.31,30.73" transform="translate(0.46 0.18)"/><path class="cls-1" d="M385.65,96.62q4.22,11.52,8.41,23" transform="translate(0.46 0.18)"/><path class="cls-1" d="M643.13,921.08l4.2,15.68" transform="translate(0.46 0.18)"/><path class="cls-1" d="M627.32,863.58c3.31,12.65,6.77,25.27,10.54,37.8" transform="translate(0.46 0.18)"/><path class="cls-1" d="M610.76,799.38q5.65,21.2,11,42.48" transform="translate(0.46 0.18)"/><path class="cls-1" d="M414.6,68.2c6.13,23.61,12.47,47.24,19.06,70.73,1.86,6.62,2.92,13.38,4.72,20" transform="translate(0.46 0.18)"/><path class="cls-1" d="M396.33,0c4.52,16.88,9.11,34.46,13.7,51.15" transform="translate(0.46 0.18)"/><path class="cls-1" d="M592,861.75l2.58,14.71" transform="translate(0.46 0.18)"/><path class="cls-1" d="M582.31,806.55q3.44,19.46,6.86,38.92" transform="translate(0.46 0.18)"/><path class="cls-1" d="M459.73,111.49q3.61,21.06,7.25,42.11" transform="translate(0.46 0.18)"/><path class="cls-1" d="M453.88,78.34c.48,3.51,1.25,8.1,2.05,11.59" transform="translate(0.46 0.18)"/><path class="cls-1" d="M555.34,832.19c3,27.83,3.75,56.11,7.26,83.63" transform="translate(0.46 0.18)"/><path class="cls-1" d="M553.37,809.86c.25,2.83.51,5.65.76,8.48" transform="translate(0.46 0.18)"/><path class="cls-1" d="M491.6,104.3c1,7.37,3.28,37.94,4,45.68" transform="translate(0.46 0.18)"/><path class="cls-1" d="M485.83,38.28c1.4,14.53,2.93,29.81,3.89,44.44" transform="translate(0.46 0.18)"/><path class="cls-1" d="M524.16,811.58q-.36,36,.09,71" transform="translate(0.46 0.18)"/><path class="cls-1" d="M524.25,135.32q0,6.42,0,12.84" transform="translate(0.46 0.18)"/><path class="cls-1" d="M524.25,72.18c-.33,13.5-.33,28,0,41.53" transform="translate(0.46 0.18)"/><path class="cls-1" d="M504.55,22.71c-1.11-4.5.68-8.58-.53-13.2" transform="translate(0.46 0.18)"/><path class="cls-1" d="M507.78,103.86l-2.46-62" transform="translate(0.46 0.18)"/><path class="cls-1" d="M509.75,152.18q-.54-13.2-1.1-26.42" transform="translate(0.46 0.18)"/><path class="cls-1" d="M538.49,867c-.3-17.53-1.2-35-2.14-52.54" transform="translate(0.46 0.18)"/><path class="cls-1" d="M540.26,910.24l-1.14-27.8" transform="translate(0.46 0.18)"/><path class="cls-1" d="M541.61,941.75q-.39-8.81-.76-17.63" transform="translate(0.46 0.18)"/><path class="cls-1" d="M541.16,95.06c-.13-6.13,1.37-12.49.89-19" transform="translate(0.46 0.18)"/><path class="cls-1" d="M538.59,152.08q.78-17.61,1.54-35.21" transform="translate(0.46 0.18)"/><path class="cls-1" d="M506.59,832q.41-8.55.8-17.1" transform="translate(0.46 0.18)"/><path class="cls-1" d="M503.08,905.15q1.4-28.83,2.77-57.64" transform="translate(0.46 0.18)"/><path class="cls-1" d="M567,155.59c.65-3.77,13.34-97.13,15.18-112.4" transform="translate(0.46 0.18)"/><path class="cls-1" d="M468.78,882.57c3-23.13,6.27-45.9,9.41-69.68" transform="translate(0.46 0.18)"/><path class="cls-1" d="M609.72,95.89a40.27,40.27,0,0,1,2.35-10.43" transform="translate(0.46 0.18)"/><path class="cls-1" d="M595.66,159.15q4.73-21.32,9.42-42.64" transform="translate(0.46 0.18)"/><path class="cls-1" d="M429.52,895.68c6.18-29.3,14-58.82,19.76-88" transform="translate(0.46 0.18)"/><path class="cls-1" d="M415.36,958.75q4.9-21.9,9.82-43.79" transform="translate(0.46 0.18)"/><path class="cls-1" d="M406,1000.47l5.13-23" transform="translate(0.46 0.18)"/><path class="cls-1" d="M622.92,166.75c10.72-35,22.56-68.86,33.56-104.25" transform="translate(0.46 0.18)"/><path class="cls-1" d="M409.74,836q5.68-17.88,11.36-35.77" transform="translate(0.46 0.18)"/><path class="cls-1" d="M399.85,867.05c.94-2.36,4.23-12.8,4.51-14.13" transform="translate(0.46 0.18)"/><path class="cls-1" d="M674.37,118.91c2.77-3.64,3-8.55,5-12" transform="translate(0.46 0.18)"/><path class="cls-1" d="M649.68,177.49c5.12-13,10.48-25.21,15.77-37.25" transform="translate(0.46 0.18)"/><path class="cls-1" d="M390.71,797.1q1.32-3,2.63-6" transform="translate(0.46 0.18)"/><path class="cls-1" d="M348.63,898c9.09-21.54,18.52-42.94,27.1-64.69,2.46-6.22,4.78-12.49,7.34-18.66" transform="translate(0.46 0.18)"/><path class="cls-1" d="M692.05,158.82c6.44-12.48,13.33-24.28,19.33-36.84" transform="translate(0.46 0.18)"/><path class="cls-1" d="M675.83,190.45c1.82-3.48,3.6-7,5.17-10.58" transform="translate(0.46 0.18)"/><path class="cls-1" d="M318.66,870.84c6.93-12.16,13.32-24.6,19.68-37.05s26.75-50.58,30.41-57.28" transform="translate(0.46 0.18)"/><path class="cls-1" d="M300.92,904.1q4-7.41,8-14.85" transform="translate(0.46 0.18)"/><path class="cls-1" d="M699.64,205.68c1.65-3.17,60-95.45,84.28-131.32" transform="translate(0.46 0.18)"/><path class="cls-1" d="M304.1,822c13-20.59,26.72-40.08,38.9-60.61" transform="translate(0.46 0.18)"/><path class="cls-1" d="M770.53,160.55c4.11-5.22,8.08-10.36,12-15.58" transform="translate(0.46 0.18)"/><path class="cls-1" d="M724.75,220.58c11.41-14.63,22.87-29.21,33.64-44.32" transform="translate(0.46 0.18)"/><path class="cls-1" d="M310,755.73,318.32,745" transform="translate(0.46 0.18)"/><path class="cls-1" d="M279.24,796q9.18-12.07,18.39-24.12" transform="translate(0.46 0.18)"/><path class="cls-1" d="M219.51,873.72c14.9-20.06,30.86-39.84,46.08-60" transform="translate(0.46 0.18)"/><path class="cls-1" d="M745.86,239.3c17-19.25,34.72-37.71,52-56.34" transform="translate(0.46 0.18)"/><path class="cls-1" d="M260.87,765.07c12.08-12.73,23.92-25.69,35.79-38.62" transform="translate(0.46 0.18)"/><path class="cls-1" d="M206.58,823.92c2.78-3.28,6.28-6,8.92-9.47,10.78-12.17,21-22.73,31.15-34" transform="translate(0.46 0.18)"/><path class="cls-1" d="M789.26,238.55c10.47-7.81,46.12-42.45,53.12-48,8.22-8,15.69-15.89,24.5-22.68" transform="translate(0.46 0.18)"/><path class="cls-1" d="M766.62,259.18q4.74-4.4,9.55-8.71" transform="translate(0.46 0.18)"/><path class="cls-1" d="M270.11,711.28a35.14,35.14,0,0,0,5.62-4.56" transform="translate(0.46 0.18)"/><path class="cls-1" d="M195.68,778.84c19.84-18.35,40.74-35.68,59.64-54.06" transform="translate(0.46 0.18)"/><path class="cls-1" d="M785.62,280.78c7.43-6,15.18-11.63,22.94-17.25,16.08-12.86,31.5-24.86,47.68-36.95,5.68-3.82,11.26-8.39,16.59-12.26" transform="translate(0.46 0.18)"/><path class="cls-1" d="M200.64,726.56c11.81-8.07,49.74-36.84,56.14-42.78" transform="translate(0.46 0.18)"/><path class="cls-1" d="M887.88,250.15q27.72-17.25,55.58-34.76c6.34-4.67,13.53-8.68,19.92-13" transform="translate(0.46 0.18)"/><path class="cls-1" d="M853.87,271.78q9.81-6.24,19.61-12.52" transform="translate(0.46 0.18)"/><path class="cls-1" d="M801.44,304.5c12.46-8,25-15.82,37.73-23.36" transform="translate(0.46 0.18)"/><path class="cls-1" d="M207.52,680.84c5.72-3.38,27.88-17.46,33.26-21.52" transform="translate(0.46 0.18)"/><path class="cls-1" d="M180.45,697.53q4.83-3,9.67-6.06" transform="translate(0.46 0.18)"/><path class="cls-1" d="M815.34,329.78c22.61-11.44,45.81-22.89,67.83-34.85" transform="translate(0.46 0.18)"/><path class="cls-1" d="M145.62,675.75c27.38-12.33,53.89-28.07,81.13-41.59" transform="translate(0.46 0.18)"/><path class="cls-1" d="M112.78,692.71c6-1.52,10-5.9,16-8.28" transform="translate(0.46 0.18)"/><path class="cls-1" d="M924.09,316.32c7.16-3.78,15.41-5.61,22.64-9.29" transform="translate(0.46 0.18)"/><path class="cls-1" d="M828,356q31.85-13.12,63.45-26.79c5.38-2.34,10.84-4.18,16.34-6.2" transform="translate(0.46 0.18)"/><path class="cls-1" d="M178.62,622.46q18.7-7.66,37.42-15.29" transform="translate(0.46 0.18)"/><path class="cls-1" d="M148,634.75,162.4,629" transform="translate(0.46 0.18)"/><path class="cls-1" d="M835,383.8l58.44-18.31,16.58-5.2" transform="translate(0.46 0.18)"/><path class="cls-1" d="M191.21,584.29l17.35-5.37" transform="translate(0.46 0.18)"/><path class="cls-1" d="M112.36,608.65c20.46-6.51,40.87-13.18,61.55-19" transform="translate(0.46 0.18)"/><path class="cls-1" d="M30.15,634.49c21.72-8,44-14.67,66.06-20.77" transform="translate(0.46 0.18)"/><path class="cls-1" d="M1041.68,367.72c5.16-1.4,10.47-2.08,15.7-3.43" transform="translate(0.46 0.18)"/><path class="cls-1" d="M908.63,396.73c38.61-7.61,76.71-17.12,115-25.07" transform="translate(0.46 0.18)"/><path class="cls-1" d="M844,410.92q24.48-5.37,49-10.78" transform="translate(0.46 0.18)"/><path class="cls-1" d="M147.62,562.65q26.07-5.77,52.13-11.52" transform="translate(0.46 0.18)"/><path class="cls-1" d="M75,578.64l56.41-12.43" transform="translate(0.46 0.18)"/><path class="cls-1" d="M979.52,423.83c7.47-1.26,15.81-2.33,23.44-3" transform="translate(0.46 0.18)"/><path class="cls-1" d="M851.24,440.18Q907,432.73,962.7,426" transform="translate(0.46 0.18)"/><path class="cls-1" d="M121.18,533.92c24-3.38,47.5-6.39,71.59-9.25" transform="translate(0.46 0.18)"/><path class="cls-1" d="M874,466.73c18.36-.42,35.9-1.9,54-2.17" transform="translate(0.46 0.18)"/><path class="cls-1" d="M853.18,467.57l3.74-.15" transform="translate(0.46 0.18)"/><path class="cls-1" d="M103.38,497.89c28.88-1.92,58.18-1.83,87.08-3.62" transform="translate(0.46 0.18)"/><path class="cls-1" d="M74.06,499l11.19-.42" transform="translate(0.46 0.18)"/><path class="cls-1" d="M947.74,500.85c24.81,1.43,50.32,2,75.18,3.53" transform="translate(0.46 0.18)"/><path class="cls-1" d="M907.5,498.94,929.92,500" transform="translate(0.46 0.18)"/><path class="cls-1" d="M854.87,496.27q17.5.87,35,1.83" transform="translate(0.46 0.18)"/><path class="cls-1" d="M85.92,461.28c35.23,2.19,69.94,2.37,104.7,4" transform="translate(0.46 0.18)"/><path class="cls-1" d="M48.31,459.13q8.76.58,17.54,1.09" transform="translate(0.46 0.18)"/><path class="cls-1" d="M-.41,456.29q14.12.9,28.25,1.71" transform="translate(0.46 0.18)"/><path class="cls-1" d="M851.2,525.19,938,536.93l24.35,3.29" transform="translate(0.46 0.18)"/><path class="cls-1" d="M168.25,433l26,3.52" transform="translate(0.46 0.18)"/><path class="cls-1" d="M121.34,426.64c9.94,1.62,20,1.87,30.38,4.11" transform="translate(0.46 0.18)"/><path class="cls-1" d="M906.92,567.34c3.91.67,7.9,1.7,11.53,2.59" transform="translate(0.46 0.18)"/><path class="cls-1" d="M845.8,553.19c7.46,1.6,15,3,22.38,4.9,7.05,1.8,14,4,21.18,5.29" transform="translate(0.46 0.18)"/><path class="cls-1" d="M118.17,389.82c21.6,4.36,43.38,8.05,64.62,14,6.15,1.73,12.31,3.18,18.56,4.49" transform="translate(0.46 0.18)"/><path class="cls-1" d="M48.79,374.09C65.49,378.15,82.25,382,99,385.64" transform="translate(0.46 0.18)"/><path class="cls-1" d="M976.42,625.93c8.32,2.43,16.39,5.77,24.9,7.52" transform="translate(0.46 0.18)"/><path class="cls-1" d="M877.26,593.88c28,8.76,56.19,18.25,84.1,27.11" transform="translate(0.46 0.18)"/><path class="cls-1" d="M838.6,582.19q11.89,3.67,23.9,7" transform="translate(0.46 0.18)"/><path class="cls-1" d="M172.69,369.43c12,3.81,24.06,7.54,36.1,11.28" transform="translate(0.46 0.18)"/><path class="cls-1" d="M136.86,357.72q8.32,2.79,16.67,5.52" transform="translate(0.46 0.18)"/><path class="cls-1" d="M899.69,638.38c13.28,6.44,26.95,10.86,40.42,16.9" transform="translate(0.46 0.18)"/><path class="cls-1" d="M829.58,609q27.6,11.61,55.21,23.2" transform="translate(0.46 0.18)"/><path class="cls-1" d="M145.23,322.39a13.14,13.14,0,0,1,6,3.09c13.87,5.93,57.84,24.19,65.49,27.06" transform="translate(0.46 0.18)"/><path class="cls-1" d="M115.81,310.62a18.4,18.4,0,0,0,6.85,2.34" transform="translate(0.46 0.18)"/><path class="cls-1" d="M874.19,665.19c2.24,1.28,5.47,2.41,7.74,4" transform="translate(0.46 0.18)"/><path class="cls-1" d="M818.54,636.4c7,4.32,14.84,7.57,22.16,11.32q10.74,5.49,21.42,11.13" transform="translate(0.46 0.18)"/><path class="cls-1" d="M164.12,292.53c16.22,9.53,33.41,17.05,50,25.78q7.26,3.79,14.5,7.61" transform="translate(0.46 0.18)"/><path class="cls-1" d="M896.42,720.36q9.76,6.18,19.38,12.6" transform="translate(0.46 0.18)"/><path class="cls-1" d="M869.37,703.16c2.07,2.49,6.15,4.28,8.72,6.26,1.71,1.33,4.08,1.79,5.68,3.08" transform="translate(0.46 0.18)"/><path class="cls-1" d="M804.86,662.42c8.61,6,42.91,27,51.57,32.43" transform="translate(0.46 0.18)"/><path class="cls-1" d="M236.45,296.79q3.74,2.23,7.44,4.5" transform="translate(0.46 0.18)"/><path class="cls-1" d="M196,270.89c7.07,4.17,14.1,8.4,20.88,13" transform="translate(0.46 0.18)"/><path class="cls-1" d="M129.26,228.18c2.8,1.86,5.37,3.84,7.94,5.83,10,5.66,37.53,22.16,41.76,25" transform="translate(0.46 0.18)"/><path class="cls-1" d="M803.77,697.81c13.24,10.2,26.93,20.78,40,30.89" transform="translate(0.46 0.18)"/><path class="cls-1" d="M786.78,684.7l7.61,5.86" transform="translate(0.46 0.18)"/><path class="cls-1" d="M239.43,261.88l21.1,16.29" transform="translate(0.46 0.18)"/><path class="cls-1" d="M202.28,233.07l19.42,15.06" transform="translate(0.46 0.18)"/><path class="cls-1" d="M824.81,759.28c3.85,3.51,7.37,6.91,10.46,9.65" transform="translate(0.46 0.18)"/><path class="cls-1" d="M769.92,708.45c15.18,13.13,29.4,27.33,44.15,40.93" transform="translate(0.46 0.18)"/><path class="cls-1" d="M235.21,214.87c14.75,13.36,28.68,27.58,43.15,41.24" transform="translate(0.46 0.18)"/><path class="cls-1" d="M178.39,162.84q20.52,18.76,41,37.5" transform="translate(0.46 0.18)"/><path class="cls-1" d="M150.9,137.61q5.44,4.95,10.88,9.93" transform="translate(0.46 0.18)"/><path class="cls-1" d="M747.76,727.87c11,13,42.15,45.29,46.62,50.11.85.66,1,2.18,1.48,2.66" transform="translate(0.46 0.18)"/><path class="cls-1" d="M274.35,207.68q12.75,13.66,25.44,27.4" transform="translate(0.46 0.18)"/><path class="cls-1" d="M250.19,181.14c2.46,3.37,6,6.77,9.52,10.46" transform="translate(0.46 0.18)"/><path class="cls-1" d="M772.21,807.88a270.68,270.68,0,0,0,21,27.29,106.32,106.32,0,0,0,9.16,12.32" transform="translate(0.46 0.18)"/><path class="cls-1" d="M742.71,769q10.23,13.46,20.41,26.94" transform="translate(0.46 0.18)"/><path class="cls-1" d="M725.88,746.91l8.06,10.56" transform="translate(0.46 0.18)"/><path class="cls-1" d="M313.73,206.29q4.36,5.72,8.74,11.42" transform="translate(0.46 0.18)"/><path class="cls-1" d="M263.09,139.9q19,25,38,49.91" transform="translate(0.46 0.18)"/><path class="cls-1" d="M244.46,115.34l5.78,7.63" transform="translate(0.46 0.18)"/><path class="cls-1" d="M732.44,812c1.37,4.54,5.55,7.09,7.22,11.42" transform="translate(0.46 0.18)"/><path class="cls-1" d="M700.91,761.45q9.44,15.19,18.79,30.44" transform="translate(0.46 0.18)"/><path class="cls-1" d="M314.24,150.65q16.56,26.49,33.29,52.88" transform="translate(0.46 0.18)"/><path class="cls-1" d="M292.65,116.6l11.94,18.83" transform="translate(0.46 0.18)"/><path class="cls-1" d="M688.28,800.93c4,10.19,24.39,49.2,30.21,58.52" transform="translate(0.46 0.18)"/><path class="cls-1" d="M675.5,775.8q1.13,2.34,2.22,4.68" transform="translate(0.46 0.18)"/><path class="cls-1" d="M357.16,159.56q7.56,14.53,15.13,29.06" transform="translate(0.46 0.18)"/><path class="cls-1" d="M337.06,120.74l11.28,21.78" transform="translate(0.46 0.18)"/><path class="cls-1" d="M697.44,906q3.07,7.51,6.16,15" transform="translate(0.46 0.18)"/><path class="cls-1" d="M674.43,850.91c4.9,12.14,9.94,24.22,15.26,36.17" transform="translate(0.46 0.18)"/><path class="cls-1" d="M649.83,789.32q8.31,20.32,16.3,40.75" transform="translate(0.46 0.18)"/><path class="cls-1" d="M362.17,88.85c9.08,22.65,18.38,45.29,27.9,67.75,2.69,6.34,4.61,12.9,7.24,19.26" transform="translate(0.46 0.18)"/><path class="cls-1" d="M335.36,23.52c6.64,16.17,13.42,33,20.1,49" transform="translate(0.46 0.18)"/><path class="cls-1" d="M639.19,853.59q2.2,7.14,4.43,14.27" transform="translate(0.46 0.18)"/><path class="cls-1" d="M622.51,800.06q5.9,18.87,11.77,37.74" transform="translate(0.46 0.18)"/><path class="cls-1" d="M412.45,126.06q6.26,20.43,12.55,40.86" transform="translate(0.46 0.18)"/><path class="cls-1" d="M402.43,93.92c.92,3.42,2.26,7.88,3.5,11.24" transform="translate(0.46 0.18)"/><path class="cls-1" d="M599,828.93c6.5,27.23,10.86,55.2,17.85,82.05" transform="translate(0.46 0.18)"/><path class="cls-1" d="M594.22,807q.93,4.15,1.84,8.32" transform="translate(0.46 0.18)"/><path class="cls-1" d="M443.16,114.87c1.91,7.19,8.07,37.23,9.82,44.81" transform="translate(0.46 0.18)"/><path class="cls-1" d="M429,50.11c3.24,14.23,6.7,29.2,9.51,43.6" transform="translate(0.46 0.18)"/><path class="cls-1" d="M565.47,812.45q4.21,35.73,9.12,70.47" transform="translate(0.46 0.18)"/><path class="cls-1" d="M479.49,141.5l1.62,12.73" transform="translate(0.46 0.18)"/><path class="cls-1" d="M471.46,78.86c1.39,13.42,3.24,27.83,5.28,41.19" transform="translate(0.46 0.18)"/></g></svg>